<svg width="441" height="440" xmlns="http://www.w3.org/2000/svg" xmlns:xlink="http://www.w3.org/1999/xlink" xml:space="preserve" overflow="hidden"><defs><clipPath id="clip0"><rect x="711" y="140" width="441" height="440"/></clipPath></defs><g clip-path="url(#clip0)" transform="translate(-711 -140)"><path d="M49.4068 205.312 150.704 205.312 150.704 341.903 49.4068 341.903Z" fill="#FFC000" transform="matrix(0.98368 -0.19129 0.191725 0.981449 660.395 164.192)"/><path d="M97.3175 222.437 198.609 222.437 198.609 359.02 97.3175 359.02Z" fill="#F2F2F2" transform="matrix(1.00227 0 0 1 711 140)"/><path d="M184.172 337.88 111.755 337.88 111.755 337.421 184.172 337.421 184.172 337.88ZM184.172 333.205 111.755 333.205 111.755 333.663 184.172 333.663 184.172 333.205ZM184.172 328.988 111.755 328.988 111.755 329.446 184.172 329.446 184.172 328.988ZM184.172 324.771 111.755 324.771 111.755 325.23 184.172 325.23 184.172 324.771ZM184.172 320.555 111.755 320.555 111.755 321.013 184.172 321.013 184.172 320.555ZM184.172 316.338 111.755 316.338 111.755 316.796 184.172 316.796 184.172 316.338ZM184.172 312.121 111.755 312.121 111.755 312.58 184.172 312.58 184.172 312.121ZM184.172 307.905 111.755 307.905 111.755 308.363 184.172 308.363 184.172 307.905ZM184.172 303.688 111.755 303.688 111.755 304.146 184.172 304.146 184.172 303.688ZM184.172 299.471 111.755 299.471 111.755 299.93 184.172 299.93 184.172 299.471ZM184.172 295.255 111.755 295.255 111.755 295.713 184.172 295.713 184.172 295.255ZM184.172 291.038 111.755 291.038 111.755 291.496 184.172 291.496 184.172 291.038ZM184.172 286.821 111.755 286.821 111.755 287.28 184.172 287.28 184.172 286.821ZM184.172 282.605 111.755 282.605 111.755 283.063 184.172 283.063 184.172 282.605ZM184.172 278.388 111.755 278.388 111.755 278.846 184.172 278.846 184.172 278.388ZM184.172 274.171 111.755 274.171 111.755 274.63 184.172 274.63 184.172 274.171ZM184.172 269.955 111.755 269.955 111.755 270.413 184.172 270.413 184.172 269.955ZM184.172 265.738 111.755 265.738 111.755 266.196 184.172 266.196 184.172 265.738ZM184.172 261.521 111.755 261.521 111.755 261.98 184.172 261.98 184.172 261.521ZM184.172 257.305 111.755 257.305 111.755 257.763 184.172 257.763 184.172 257.305ZM184.172 253.088 111.755 253.088 111.755 253.546 184.172 253.546 184.172 253.088ZM184.172 248.871 111.755 248.871 111.755 249.33 184.172 249.33 184.172 248.871ZM184.172 244.655 111.755 244.655 111.755 245.113 184.172 245.113 184.172 244.655Z" fill="#CFCFCF" transform="matrix(1.00227 0 0 1 711 140)"/><path d="M405.415 234.87C403.677 231.07 391.757 232.621 373.769 235.42 361.515 237.327 347.626 239.489 346.315 236.763 346.028 236.165 346.29 234.897 349.173 232.255 350.984 230.594 351.564 228.883 350.897 227.168 348.433 220.833 329.015 216.792 319.683 216.792L317.167 216.792 317.167 214.042 302.042 214.042 302.042 220.684 317.167 220.684 317.167 217.708 319.683 217.708C330.168 217.708 347.941 222.095 350.043 227.5 350.566 228.846 350.079 230.18 348.553 231.579 345.832 234.074 344.858 235.847 345.489 237.16 346.986 240.274 357.225 238.922 373.911 236.325 387.547 234.203 403.002 231.798 404.581 235.251 405.036 236.245 404.434 238.401 398.983 243.025 375.584 262.88 380.472 280.695 386.66 303.25 388.579 310.245 390.564 317.479 391.953 325.495 394.867 342.307 387.244 351.942 380.336 357.064 368.421 365.898 350.572 367.323 345.436 364.737 344.909 364.471 344.28 364.034 344.28 363.458L344.28 359.333 346.113 359.333 346.113 348.333 341.53 348.333 341.53 359.333 343.363 359.333 343.363 363.458C343.363 364.034 343.651 364.865 345.024 365.556 346.594 366.346 349.334 366.807 352.744 366.807 360.614 366.807 372.051 364.348 380.882 357.8 387.997 352.524 395.851 342.61 392.857 325.338 391.46 317.279 389.469 310.023 387.544 303.007 384.419 291.616 381.72 281.778 382.633 272.204 383.632 261.734 389.016 252.685 399.577 243.724 404.437 239.601 406.292 236.787 405.415 234.87Z" fill="#CFCFCF" transform="matrix(1.00227 0 0 1 711 140)"/><path d="M300.511 341.964 209.911 355.907 208.938 349.585 299.538 335.642 309.536 337.329Z" fill="#FFC000" transform="matrix(1.00227 0 0 1 711 140)"/><path d="M223.391 344.61 279.312 344.61 279.312 345.068 223.391 345.068Z" fill="#FFFFFF" transform="matrix(0.99056 -0.152087 0.152432 0.988314 661.364 182.241)"/><path d="M83.451 313.5 39.8507 313.5C37.8052 313.5 36.1469 311.842 36.1469 309.796L36.1469 218.615C36.1469 216.57 37.8052 214.912 39.8507 214.912L83.451 214.912C85.4966 214.912 87.1548 216.57 87.1548 218.615L87.1548 309.796C87.1548 311.842 85.4966 313.5 83.451 313.5Z" fill="#505050" transform="matrix(1.00227 0 0 1 711 140)"/><path d="M47.3321 266.82C47.3321 268.29 46.1407 269.481 44.671 269.481 43.2013 269.481 42.0099 268.29 42.0099 266.82 42.0099 265.35 43.2013 264.159 44.671 264.159 46.1407 264.159 47.3321 265.35 47.3321 266.82Z" fill="#737373" transform="matrix(1.00227 0 0 1 711 140)"/><path d="M55.9813 266.82C55.9813 268.29 54.7899 269.481 53.3202 269.481 51.8505 269.481 50.6591 268.29 50.6591 266.82 50.6591 265.35 51.8505 264.159 53.3202 264.159 54.7899 264.159 55.9813 265.35 55.9813 266.82Z" fill="#737373" transform="matrix(1.00227 0 0 1 711 140)"/><path d="M45.936 252.12C45.936 253.1 45.1417 253.895 44.1618 253.895 43.1819 253.895 42.3876 253.1 42.3876 252.12 42.3876 251.141 43.1819 250.346 44.1618 250.346 45.1417 250.346 45.936 251.141 45.936 252.12Z" fill="#CFCFCF" transform="matrix(1.00227 0 0 1 711 140)"/><path d="M54.5852 252.12C54.5852 253.1 53.7909 253.895 52.811 253.895 51.8311 253.895 51.0368 253.1 51.0368 252.12 51.0368 251.141 51.8311 250.346 52.811 250.346 53.7909 250.346 54.5852 251.141 54.5852 252.12Z" fill="#737373" transform="matrix(1.00227 0 0 1 711 140)"/><path d="M64.6305 266.82C64.6305 268.29 63.4391 269.481 61.9694 269.481 60.4997 269.481 59.3083 268.29 59.3083 266.82 59.3083 265.35 60.4997 264.159 61.9694 264.159 63.4391 264.159 64.6305 265.35 64.6305 266.82Z" fill="#737373" transform="matrix(1.00227 0 0 1 711 140)"/><path d="M73.2797 266.82C73.2797 268.29 72.0883 269.481 70.6186 269.481 69.1489 269.481 67.9575 268.29 67.9575 266.82 67.9575 265.35 69.1489 264.159 70.6186 264.159 72.0883 264.159 73.2797 265.35 73.2797 266.82Z" fill="#737373" transform="matrix(1.00227 0 0 1 711 140)"/><path d="M81.9289 266.82C81.9289 268.29 80.7375 269.481 79.2678 269.481 77.7982 269.481 76.6068 268.29 76.6068 266.82 76.6068 265.35 77.7982 264.159 79.2678 264.159 80.7375 264.159 81.9289 265.35 81.9289 266.82Z" fill="#737373" transform="matrix(1.00227 0 0 1 711 140)"/><path d="M47.3321 275.247C47.3321 276.717 46.1407 277.909 44.671 277.909 43.2013 277.909 42.0099 276.717 42.0099 275.247 42.0099 273.778 43.2013 272.586 44.671 272.586 46.1407 272.586 47.3321 273.778 47.3321 275.247Z" fill="#CFCFCF" transform="matrix(1.00227 0 0 1 711 140)"/><path d="M55.9813 275.247C55.9813 276.717 54.7899 277.909 53.3202 277.909 51.8505 277.909 50.6591 276.717 50.6591 275.247 50.6591 273.778 51.8505 272.586 53.3202 272.586 54.7899 272.586 55.9813 273.778 55.9813 275.247Z" fill="#737373" transform="matrix(1.00227 0 0 1 711 140)"/><path d="M64.6305 275.247C64.6305 276.717 63.4391 277.909 61.9694 277.909 60.4997 277.909 59.3083 276.717 59.3083 275.247 59.3083 273.778 60.4997 272.586 61.9694 272.586 63.4391 272.586 64.6305 273.778 64.6305 275.247Z" fill="#737373" transform="matrix(1.00227 0 0 1 711 140)"/><path d="M73.2797 275.247C73.2797 276.717 72.0883 277.909 70.6186 277.909 69.1489 277.909 67.9575 276.717 67.9575 275.247 67.9575 273.778 69.1489 272.586 70.6186 272.586 72.0883 272.586 73.2797 273.778 73.2797 275.247Z" fill="#737373" transform="matrix(1.00227 0 0 1 711 140)"/><path d="M81.9289 275.247C81.9289 276.717 80.7375 277.909 79.2678 277.909 77.7982 277.909 76.6068 276.717 76.6068 275.247 76.6068 273.778 77.7982 272.586 79.2678 272.586 80.7375 272.586 81.9289 273.778 81.9289 275.247Z" fill="#CFCFCF" transform="matrix(1.00227 0 0 1 711 140)"/><path d="M47.3321 283.675C47.3321 285.145 46.1407 286.336 44.671 286.336 43.2013 286.336 42.0099 285.145 42.0099 283.675 42.0099 282.205 43.2013 281.014 44.671 281.014 46.1407 281.014 47.3321 282.205 47.3321 283.675Z" fill="#CFCFCF" transform="matrix(1.00227 0 0 1 711 140)"/><path d="M55.9813 283.675C55.9813 285.145 54.7899 286.336 53.3202 286.336 51.8505 286.336 50.6591 285.145 50.6591 283.675 50.6591 282.205 51.8505 281.014 53.3202 281.014 54.7899 281.014 55.9813 282.205 55.9813 283.675Z" fill="#737373" transform="matrix(1.00227 0 0 1 711 140)"/><path d="M64.6305 283.675C64.6305 285.145 63.4391 286.336 61.9694 286.336 60.4997 286.336 59.3083 285.145 59.3083 283.675 59.3083 282.205 60.4997 281.014 61.9694 281.014 63.4391 281.014 64.6305 282.205 64.6305 283.675Z" fill="#737373" transform="matrix(1.00227 0 0 1 711 140)"/><path d="M73.2797 283.675C73.2797 285.145 72.0883 286.336 70.6186 286.336 69.1489 286.336 67.9575 285.145 67.9575 283.675 67.9575 282.205 69.1489 281.014 70.6186 281.014 72.0883 281.014 73.2797 282.205 73.2797 283.675Z" fill="#737373" transform="matrix(1.00227 0 0 1 711 140)"/><path d="M81.9289 283.675C81.9289 285.145 80.7375 286.336 79.2678 286.336 77.7982 286.336 76.6068 285.145 76.6068 283.675 76.6068 282.205 77.7982 281.014 79.2678 281.014 80.7375 281.014 81.9289 282.205 81.9289 283.675Z" fill="#CFCFCF" transform="matrix(1.00227 0 0 1 711 140)"/><path d="M47.3321 292.102C47.3321 293.572 46.1407 294.763 44.671 294.763 43.2013 294.763 42.0099 293.572 42.0099 292.102 42.0099 290.633 43.2013 289.441 44.671 289.441 46.1407 289.441 47.3321 290.633 47.3321 292.102Z" fill="#CFCFCF" transform="matrix(1.00227 0 0 1 711 140)"/><path d="M55.9813 292.102C55.9813 293.572 54.7899 294.763 53.3202 294.763 51.8505 294.763 50.6591 293.572 50.6591 292.102 50.6591 290.633 51.8505 289.441 53.3202 289.441 54.7899 289.441 55.9813 290.633 55.9813 292.102Z" fill="#737373" transform="matrix(1.00227 0 0 1 711 140)"/><path d="M64.6305 292.102C64.6305 293.572 63.4391 294.763 61.9694 294.763 60.4997 294.763 59.3083 293.572 59.3083 292.102 59.3083 290.633 60.4997 289.441 61.9694 289.441 63.4391 289.441 64.6305 290.633 64.6305 292.102Z" fill="#737373" transform="matrix(1.00227 0 0 1 711 140)"/><path d="M73.2797 292.102C73.2797 293.572 72.0883 294.763 70.6186 294.763 69.1489 294.763 67.9575 293.572 67.9575 292.102 67.9575 290.633 69.1489 289.441 70.6186 289.441 72.0883 289.441 73.2797 290.633 73.2797 292.102Z" fill="#737373" transform="matrix(1.00227 0 0 1 711 140)"/><path d="M81.9289 292.102C81.9289 293.572 80.7375 294.763 79.2678 294.763 77.7982 294.763 76.6068 293.572 76.6068 292.102 76.6068 290.633 77.7982 289.441 79.2678 289.441 80.7375 289.441 81.9289 290.633 81.9289 292.102Z" fill="#CFCFCF" transform="matrix(1.00227 0 0 1 711 140)"/><path d="M47.3321 300.53C47.3321 301.999 46.1407 303.191 44.671 303.191 43.2013 303.191 42.0099 301.999 42.0099 300.53 42.0099 299.06 43.2013 297.869 44.671 297.869 46.1407 297.869 47.3321 299.06 47.3321 300.53Z" fill="#CFCFCF" transform="matrix(1.00227 0 0 1 711 140)"/><path d="M55.9813 300.53C55.9813 301.999 54.7899 303.191 53.3202 303.191 51.8505 303.191 50.6591 301.999 50.6591 300.53 50.6591 299.06 51.8505 297.869 53.3202 297.869 54.7899 297.869 55.9813 299.06 55.9813 300.53Z" fill="#737373" transform="matrix(1.00227 0 0 1 711 140)"/><path d="M64.6305 300.53C64.6305 301.999 63.4391 303.191 61.9694 303.191 60.4997 303.191 59.3083 301.999 59.3083 300.53 59.3083 299.06 60.4997 297.869 61.9694 297.869 63.4391 297.869 64.6305 299.06 64.6305 300.53Z" fill="#CFCFCF" transform="matrix(1.00227 0 0 1 711 140)"/><path d="M73.2797 300.53C73.2797 301.999 72.0883 303.191 70.6186 303.191 69.1489 303.191 67.9575 301.999 67.9575 300.53 67.9575 299.06 69.1489 297.869 70.6186 297.869 72.0883 297.869 73.2797 299.06 73.2797 300.53Z" fill="#FFC000" transform="matrix(1.00227 0 0 1 711 140)"/><path d="M81.9289 300.53C81.9289 301.999 80.7375 303.191 79.2678 303.191 77.7982 303.191 76.6068 301.999 76.6068 300.53 76.6068 299.06 77.7982 297.869 79.2678 297.869 80.7375 297.869 81.9289 299.06 81.9289 300.53Z" fill="#CFCFCF" transform="matrix(1.00227 0 0 1 711 140)"/><path d="M40.7509 228.756 83.3314 228.756 83.3314 244.083 40.7509 244.083Z" fill="#CFCFCF" transform="matrix(1.00227 0 0 1 711 140)"/><path d="M40.4497 222.326 51.2705 222.326 51.2705 224.53 40.4497 224.53Z" fill="#CFCFCF" transform="matrix(1.00227 0 0 1 711 140)"/><path d="M369.621 256.204C369.621 253.675 367.571 251.625 365.042 251.625L323.191 251.625C320.663 251.625 318.613 253.675 318.613 256.204L318.613 346.093C318.613 348.622 320.663 350.672 323.191 350.672L365.042 350.672C367.571 350.672 369.621 348.622 369.621 346.093L369.621 256.204Z" fill="#505050" transform="matrix(1.00227 0 0 1 711 140)"/><path d="M321.163 256.667 367.071 256.667 367.071 344.808 321.163 344.808Z" fill="#E6E6E6" transform="matrix(1.00227 0 0 1 711 140)"/><path d="M321.163 315.92 321.163 331.919 321.163 344.809 367.071 344.809 367.071 270.012Z" fill="#D2D2D2" transform="matrix(1.00227 0 0 1 711 140)"/><path d="M355.738 311.667 331.905 311.667C331.145 311.667 330.53 311.051 330.53 310.292 330.53 309.532 331.145 308.917 331.905 308.917L355.738 308.917C356.498 308.917 357.113 309.532 357.113 310.292 357.113 311.051 356.498 311.667 355.738 311.667Z" fill="#FFFFFF" transform="matrix(1.00227 0 0 1 711 140)"/><path d="M355.738 318.083 331.905 318.083C331.145 318.083 330.53 317.468 330.53 316.708 330.53 315.949 331.145 315.333 331.905 315.333L355.738 315.333C356.498 315.333 357.113 315.949 357.113 316.708 357.113 317.468 356.498 318.083 355.738 318.083Z" fill="#FFFFFF" transform="matrix(1.00227 0 0 1 711 140)"/><path d="M302.042 198.458 307.613 198.458 307.613 211.292 302.042 211.292Z" fill="#737373" transform="matrix(1.00227 0 0 1 711 140)"/><path d="M298.771 313.5 114.521 313.5C111.484 313.5 109.021 311.037 109.021 308L109.021 181.5C109.021 178.463 111.484 176 114.521 176L298.771 176C301.809 176 304.271 178.463 304.271 181.5L304.271 308C304.271 311.038 301.809 313.5 298.771 313.5Z" fill="#737373" transform="matrix(1.00227 0 0 1 711 140)"/><path d="M137.896 174.167 275.855 174.167 275.855 187.458 137.896 187.458Z" fill="#2F2F2F" transform="matrix(1.00227 0 0 1 711 140)"/><path d="M236.413 307.083 176.755 307.083C175.191 307.083 173.922 305.815 173.922 304.25L173.922 271.416C173.922 269.852 175.191 268.583 176.755 268.583L236.413 268.583C237.978 268.583 239.246 269.852 239.246 271.416L239.246 304.25C239.246 305.815 237.978 307.083 236.413 307.083Z" fill="#505050" transform="matrix(1.00227 0 0 1 711 140)"/><path d="M291.544 262.625 122.166 262.555C120.254 262.554 118.704 261.004 118.704 259.092L118.704 189.791C118.704 187.878 120.255 186.328 122.168 186.329L291.546 186.399C293.458 186.4 295.008 187.95 295.008 189.861L295.008 259.163C295.008 261.075 293.457 262.626 291.544 262.625Z" fill="#505050" transform="matrix(1.00227 0 0 1 711 140)"/><path d="M137.957 197.671 123.811 197.671C123.194 197.671 122.693 198.172 122.693 198.79L122.693 206.621C122.693 207.239 123.194 207.74 123.811 207.74L137.957 207.74C138.575 207.74 139.076 207.239 139.076 206.621L139.076 198.79C139.075 198.172 138.575 197.671 137.957 197.671Z" fill="#2F2F2F" transform="matrix(1.00227 0 0 1 711 140)"/><path d="M141.184 206.621 141.184 198.79C141.184 198.172 141.685 197.671 142.302 197.671L150.133 197.671C150.751 197.671 151.252 198.172 151.252 198.79L151.252 206.621C151.252 207.239 150.751 207.74 150.133 207.74L142.302 207.74C141.685 207.74 141.184 207.239 141.184 206.621Z" fill="#2F2F2F" transform="matrix(1.00227 0 0 1 711 140)"/><path d="M153.36 206.621 153.36 198.79C153.36 198.172 153.861 197.671 154.479 197.671L162.309 197.671C162.927 197.671 163.428 198.172 163.428 198.79L163.428 206.621C163.428 207.239 162.927 207.74 162.309 207.74L154.479 207.74C153.861 207.74 153.36 207.239 153.36 206.621Z" fill="#2F2F2F" transform="matrix(1.00227 0 0 1 711 140)"/><path d="M165.536 206.621 165.536 198.79C165.536 198.172 166.037 197.671 166.655 197.671L174.486 197.671C175.104 197.671 175.604 198.172 175.604 198.79L175.604 206.621C175.604 207.239 175.104 207.74 174.486 207.74L166.655 207.74C166.037 207.74 165.536 207.239 165.536 206.621Z" fill="#2F2F2F" transform="matrix(1.00227 0 0 1 711 140)"/><path d="M177.712 206.621 177.712 198.79C177.712 198.172 178.213 197.671 178.831 197.671L186.662 197.671C187.28 197.671 187.781 198.172 187.781 198.79L187.781 206.621C187.781 207.239 187.28 207.74 186.662 207.74L178.831 207.74C178.213 207.74 177.712 207.239 177.712 206.621Z" fill="#2F2F2F" transform="matrix(1.00227 0 0 1 711 140)"/><path d="M189.888 206.621 189.888 198.79C189.888 198.172 190.389 197.671 191.007 197.671L198.838 197.671C199.456 197.671 199.957 198.172 199.957 198.79L199.957 206.621C199.957 207.239 199.456 207.74 198.838 207.74L191.007 207.74C190.389 207.74 189.888 207.239 189.888 206.621Z" fill="#2F2F2F" transform="matrix(1.00227 0 0 1 711 140)"/><path d="M202.065 206.621 202.065 198.79C202.065 198.172 202.565 197.671 203.183 197.671L211.014 197.671C211.632 197.671 212.133 198.172 212.133 198.79L212.133 206.621C212.133 207.239 211.632 207.74 211.014 207.74L203.183 207.74C202.565 207.74 202.065 207.239 202.065 206.621Z" fill="#2F2F2F" transform="matrix(1.00227 0 0 1 711 140)"/><path d="M214.241 206.621 214.241 198.79C214.241 198.172 214.742 197.671 215.359 197.671L223.19 197.671C223.808 197.671 224.309 198.172 224.309 198.79L224.309 206.621C224.309 207.239 223.808 207.74 223.19 207.74L215.359 207.74C214.742 207.74 214.241 207.239 214.241 206.621Z" fill="#2F2F2F" transform="matrix(1.00227 0 0 1 711 140)"/><path d="M226.417 206.621 226.417 198.79C226.417 198.172 226.918 197.671 227.536 197.671L235.367 197.671C235.984 197.671 236.485 198.172 236.485 198.79L236.485 206.621C236.485 207.239 235.984 207.74 235.367 207.74L227.536 207.74C226.918 207.74 226.417 207.239 226.417 206.621Z" fill="#2F2F2F" transform="matrix(1.00227 0 0 1 711 140)"/><path d="M238.593 206.621 238.593 198.79C238.593 198.172 239.094 197.671 239.712 197.671L247.543 197.671C248.16 197.671 248.661 198.172 248.661 198.79L248.661 206.621C248.661 207.239 248.16 207.74 247.543 207.74L239.712 207.74C239.094 207.74 238.593 207.239 238.593 206.621Z" fill="#2F2F2F" transform="matrix(1.00227 0 0 1 711 140)"/><path d="M250.769 206.621 250.769 198.79C250.769 198.172 251.27 197.671 251.888 197.671L259.719 197.671C260.337 197.671 260.837 198.172 260.837 198.79L260.837 206.621C260.837 207.239 260.337 207.74 259.719 207.74L251.888 207.74C251.27 207.74 250.769 207.239 250.769 206.621Z" fill="#2F2F2F" transform="matrix(1.00227 0 0 1 711 140)"/><path d="M262.945 206.621 262.945 198.79C262.945 198.172 263.446 197.671 264.064 197.671L271.895 197.671C272.513 197.671 273.014 198.172 273.014 198.79L273.014 206.621C273.014 207.239 272.513 207.74 271.895 207.74L264.064 207.74C263.446 207.74 262.945 207.239 262.945 206.621Z" fill="#2F2F2F" transform="matrix(1.00227 0 0 1 711 140)"/><path d="M131.642 220.604 123.811 220.604C123.194 220.604 122.693 220.103 122.693 219.485L122.693 211.655C122.693 211.037 123.194 210.536 123.811 210.536L131.642 210.536C132.26 210.536 132.761 211.037 132.761 211.655L132.761 219.485C132.76 220.103 132.259 220.604 131.642 220.604Z" fill="#2F2F2F" transform="matrix(1.00227 0 0 1 711 140)"/><path d="M134.869 219.485 134.869 211.655C134.869 211.037 135.37 210.536 135.988 210.536L143.818 210.536C144.436 210.536 144.937 211.037 144.937 211.655L144.937 219.485C144.937 220.103 144.436 220.604 143.818 220.604L135.988 220.604C135.37 220.604 134.869 220.103 134.869 219.485Z" fill="#2F2F2F" transform="matrix(1.00227 0 0 1 711 140)"/><path d="M147.045 219.485 147.045 211.655C147.045 211.037 147.546 210.536 148.164 210.536L155.994 210.536C156.612 210.536 157.113 211.037 157.113 211.655L157.113 219.485C157.113 220.103 156.612 220.604 155.994 220.604L148.164 220.604C147.546 220.604 147.045 220.103 147.045 219.485Z" fill="#2F2F2F" transform="matrix(1.00227 0 0 1 711 140)"/><path d="M159.221 219.485 159.221 211.655C159.221 211.037 159.722 210.536 160.34 210.536L168.17 210.536C168.788 210.536 169.289 211.037 169.289 211.655L169.289 219.485C169.289 220.103 168.788 220.604 168.17 220.604L160.34 220.604C159.722 220.604 159.221 220.103 159.221 219.485Z" fill="#2F2F2F" transform="matrix(1.00227 0 0 1 711 140)"/><path d="M171.397 219.485 171.397 211.655C171.397 211.037 171.898 210.536 172.516 210.536L180.347 210.536C180.965 210.536 181.466 211.037 181.466 211.655L181.466 219.485C181.466 220.103 180.965 220.604 180.347 220.604L172.516 220.604C171.898 220.604 171.397 220.103 171.397 219.485Z" fill="#2F2F2F" transform="matrix(1.00227 0 0 1 711 140)"/><path d="M183.574 219.485 183.574 211.655C183.574 211.037 184.074 210.536 184.692 210.536L192.523 210.536C193.141 210.536 193.642 211.037 193.642 211.655L193.642 219.485C193.642 220.103 193.141 220.604 192.523 220.604L184.692 220.604C184.074 220.604 183.574 220.103 183.574 219.485Z" fill="#2F2F2F" transform="matrix(1.00227 0 0 1 711 140)"/><path d="M195.75 219.485 195.75 211.655C195.75 211.037 196.251 210.536 196.868 210.536L204.699 210.536C205.317 210.536 205.818 211.037 205.818 211.655L205.818 219.485C205.818 220.103 205.317 220.604 204.699 220.604L196.868 220.604C196.251 220.604 195.75 220.103 195.75 219.485Z" fill="#2F2F2F" transform="matrix(1.00227 0 0 1 711 140)"/><path d="M207.926 219.485 207.926 211.655C207.926 211.037 208.427 210.536 209.044 210.536L216.875 210.536C217.493 210.536 217.994 211.037 217.994 211.655L217.994 219.485C217.994 220.103 217.493 220.604 216.875 220.604L209.044 220.604C208.427 220.604 207.926 220.103 207.926 219.485Z" fill="#2F2F2F" transform="matrix(1.00227 0 0 1 711 140)"/><path d="M220.102 219.485 220.102 211.655C220.102 211.037 220.603 210.536 221.221 210.536L229.051 210.536C229.669 210.536 230.17 211.037 230.17 211.655L230.17 219.485C230.17 220.103 229.669 220.604 229.051 220.604L221.221 220.604C220.603 220.604 220.102 220.103 220.102 219.485Z" fill="#2F2F2F" transform="matrix(1.00227 0 0 1 711 140)"/><path d="M232.278 219.485 232.278 211.655C232.278 211.037 232.779 210.536 233.397 210.536L241.228 210.536C241.846 210.536 242.346 211.037 242.346 211.655L242.346 219.485C242.346 220.103 241.846 220.604 241.228 220.604L233.397 220.604C232.779 220.604 232.278 220.103 232.278 219.485Z" fill="#2F2F2F" transform="matrix(1.00227 0 0 1 711 140)"/><path d="M244.454 219.485 244.454 211.655C244.454 211.037 244.955 210.536 245.573 210.536L253.404 210.536C254.022 210.536 254.523 211.037 254.523 211.655L254.523 219.485C254.523 220.103 254.022 220.604 253.404 220.604L245.573 220.604C244.955 220.604 244.454 220.103 244.454 219.485Z" fill="#2F2F2F" transform="matrix(1.00227 0 0 1 711 140)"/><path d="M256.63 219.485 256.63 211.655C256.63 211.037 257.131 210.536 257.749 210.536L265.58 210.536C266.198 210.536 266.699 211.037 266.699 211.655L266.699 219.485C266.699 220.103 266.198 220.604 265.58 220.604L257.749 220.604C257.131 220.604 256.63 220.103 256.63 219.485Z" fill="#2F2F2F" transform="matrix(1.00227 0 0 1 711 140)"/><path d="M268.807 219.485 268.807 211.655C268.807 211.037 269.308 210.536 269.925 210.536L277.756 210.536C278.374 210.536 278.875 211.037 278.875 211.655L278.875 219.485C278.875 220.103 278.374 220.604 277.756 220.604L269.925 220.604C269.308 220.604 268.807 220.103 268.807 219.485Z" fill="#2F2F2F" transform="matrix(1.00227 0 0 1 711 140)"/><path d="M289.932 220.604 282.101 220.604C281.484 220.604 280.983 220.103 280.983 219.485L280.983 211.655C280.983 211.037 281.484 210.536 282.101 210.536L289.932 210.536C290.55 210.536 291.051 211.037 291.051 211.655L291.051 219.485C291.051 220.103 290.55 220.604 289.932 220.604Z" fill="#2F2F2F" transform="matrix(1.00227 0 0 1 711 140)"/><path d="M131.642 194.875 123.811 194.875C123.194 194.875 122.693 194.374 122.693 193.756L122.693 190.96C122.693 190.342 123.194 189.841 123.811 189.841L131.642 189.841C132.26 189.841 132.761 190.342 132.761 190.96L132.761 193.756C132.76 194.374 132.259 194.875 131.642 194.875Z" fill="#2F2F2F" transform="matrix(1.00227 0 0 1 711 140)"/><path d="M134.869 193.756 134.869 190.96C134.869 190.342 135.37 189.841 135.988 189.841L143.818 189.841C144.436 189.841 144.937 190.342 144.937 190.96L144.937 193.756C144.937 194.374 144.436 194.875 143.818 194.875L135.988 194.875C135.37 194.875 134.869 194.374 134.869 193.756Z" fill="#2F2F2F" transform="matrix(1.00227 0 0 1 711 140)"/><path d="M147.045 193.756 147.045 190.96C147.045 190.342 147.546 189.841 148.164 189.841L155.994 189.841C156.612 189.841 157.113 190.342 157.113 190.96L157.113 193.756C157.113 194.374 156.612 194.875 155.994 194.875L148.164 194.875C147.546 194.875 147.045 194.374 147.045 193.756Z" fill="#2F2F2F" transform="matrix(1.00227 0 0 1 711 140)"/><path d="M159.221 193.756 159.221 190.96C159.221 190.342 159.722 189.841 160.34 189.841L168.17 189.841C168.788 189.841 169.289 190.342 169.289 190.96L169.289 193.756C169.289 194.374 168.788 194.875 168.17 194.875L160.34 194.875C159.722 194.875 159.221 194.374 159.221 193.756Z" fill="#2F2F2F" transform="matrix(1.00227 0 0 1 711 140)"/><path d="M171.397 193.756 171.397 190.96C171.397 190.342 171.898 189.841 172.516 189.841L180.347 189.841C180.965 189.841 181.466 190.342 181.466 190.96L181.466 193.756C181.466 194.374 180.965 194.875 180.347 194.875L172.516 194.875C171.898 194.875 171.397 194.374 171.397 193.756Z" fill="#2F2F2F" transform="matrix(1.00227 0 0 1 711 140)"/><path d="M183.574 193.756 183.574 190.96C183.574 190.342 184.074 189.841 184.692 189.841L192.523 189.841C193.141 189.841 193.642 190.342 193.642 190.96L193.642 193.756C193.642 194.374 193.141 194.875 192.523 194.875L184.692 194.875C184.074 194.875 183.574 194.374 183.574 193.756Z" fill="#2F2F2F" transform="matrix(1.00227 0 0 1 711 140)"/><path d="M195.75 193.756 195.75 190.96C195.75 190.342 196.251 189.841 196.868 189.841L204.699 189.841C205.317 189.841 205.818 190.342 205.818 190.96L205.818 193.756C205.818 194.374 205.317 194.875 204.699 194.875L196.868 194.875C196.251 194.875 195.75 194.374 195.75 193.756Z" fill="#2F2F2F" transform="matrix(1.00227 0 0 1 711 140)"/><path d="M207.926 193.756 207.926 190.96C207.926 190.342 208.427 189.841 209.044 189.841L216.875 189.841C217.493 189.841 217.994 190.342 217.994 190.96L217.994 193.756C217.994 194.374 217.493 194.875 216.875 194.875L209.044 194.875C208.427 194.875 207.926 194.374 207.926 193.756Z" fill="#2F2F2F" transform="matrix(1.00227 0 0 1 711 140)"/><path d="M220.102 193.756 220.102 190.96C220.102 190.342 220.603 189.841 221.221 189.841L229.051 189.841C229.669 189.841 230.17 190.342 230.17 190.96L230.17 193.756C230.17 194.374 229.669 194.875 229.051 194.875L221.221 194.875C220.603 194.875 220.102 194.374 220.102 193.756Z" fill="#2F2F2F" transform="matrix(1.00227 0 0 1 711 140)"/><path d="M232.278 193.756 232.278 190.96C232.278 190.342 232.779 189.841 233.397 189.841L241.228 189.841C241.846 189.841 242.346 190.342 242.346 190.96L242.346 193.756C242.346 194.374 241.846 194.875 241.228 194.875L233.397 194.875C232.779 194.875 232.278 194.374 232.278 193.756Z" fill="#2F2F2F" transform="matrix(1.00227 0 0 1 711 140)"/><path d="M244.454 193.756 244.454 190.96C244.454 190.342 244.955 189.841 245.573 189.841L253.404 189.841C254.022 189.841 254.523 190.342 254.523 190.96L254.523 193.756C254.523 194.374 254.022 194.875 253.404 194.875L245.573 194.875C244.955 194.875 244.454 194.374 244.454 193.756Z" fill="#2F2F2F" transform="matrix(1.00227 0 0 1 711 140)"/><path d="M256.63 193.756 256.63 190.96C256.63 190.342 257.131 189.841 257.749 189.841L265.58 189.841C266.198 189.841 266.699 190.342 266.699 190.96L266.699 193.756C266.699 194.374 266.198 194.875 265.58 194.875L257.749 194.875C257.131 194.875 256.63 194.374 256.63 193.756Z" fill="#2F2F2F" transform="matrix(1.00227 0 0 1 711 140)"/><path d="M268.807 193.756 268.807 190.96C268.807 190.342 269.308 189.841 269.925 189.841L277.756 189.841C278.374 189.841 278.875 190.342 278.875 190.96L278.875 193.756C278.875 194.374 278.374 194.875 277.756 194.875L269.925 194.875C269.308 194.875 268.807 194.374 268.807 193.756Z" fill="#2F2F2F" transform="matrix(1.00227 0 0 1 711 140)"/><path d="M289.932 194.875 282.101 194.875C281.484 194.875 280.983 194.374 280.983 193.756L280.983 190.96C280.983 190.342 281.484 189.841 282.101 189.841L289.932 189.841C290.55 189.841 291.051 190.342 291.051 190.96L291.051 193.756C291.051 194.374 290.55 194.875 289.932 194.875Z" fill="#2F2F2F" transform="matrix(1.00227 0 0 1 711 140)"/><path d="M137.957 223.401 123.811 223.401C123.194 223.401 122.693 223.902 122.693 224.52L122.693 232.35C122.693 232.968 123.194 233.469 123.811 233.469L137.957 233.469C138.575 233.469 139.076 232.968 139.076 232.35L139.076 224.519C139.075 223.901 138.575 223.401 137.957 223.401Z" fill="#2F2F2F" transform="matrix(1.00227 0 0 1 711 140)"/><path d="M290.094 223.401 275.949 223.401C275.331 223.401 274.83 223.902 274.83 224.52L274.83 232.35C274.83 232.968 275.331 233.469 275.949 233.469L290.094 233.469C290.712 233.469 291.213 232.968 291.213 232.35L291.213 224.519C291.213 223.901 290.712 223.401 290.094 223.401Z" fill="#2F2F2F" transform="matrix(1.00227 0 0 1 711 140)"/><path d="M290.094 197.671 275.949 197.671C275.331 197.671 274.83 198.172 274.83 198.79L274.83 206.621C274.83 207.239 275.331 207.74 275.949 207.74L290.094 207.74C290.712 207.74 291.213 207.239 291.213 206.621L291.213 198.79C291.213 198.172 290.712 197.671 290.094 197.671Z" fill="#2F2F2F" transform="matrix(1.00227 0 0 1 711 140)"/><path d="M141.184 232.35 141.184 224.519C141.184 223.901 141.685 223.4 142.302 223.4L150.133 223.4C150.751 223.4 151.252 223.901 151.252 224.519L151.252 232.35C151.252 232.968 150.751 233.469 150.133 233.469L142.302 233.469C141.685 233.469 141.184 232.968 141.184 232.35Z" fill="#2F2F2F" transform="matrix(1.00227 0 0 1 711 140)"/><path d="M153.36 232.35 153.36 224.519C153.36 223.901 153.861 223.4 154.479 223.4L162.309 223.4C162.927 223.4 163.428 223.901 163.428 224.519L163.428 232.35C163.428 232.968 162.927 233.469 162.309 233.469L154.479 233.469C153.861 233.469 153.36 232.968 153.36 232.35Z" fill="#2F2F2F" transform="matrix(1.00227 0 0 1 711 140)"/><path d="M165.536 232.35 165.536 224.519C165.536 223.901 166.037 223.4 166.655 223.4L174.486 223.4C175.104 223.4 175.604 223.901 175.604 224.519L175.604 232.35C175.604 232.968 175.104 233.469 174.486 233.469L166.655 233.469C166.037 233.469 165.536 232.968 165.536 232.35Z" fill="#2F2F2F" transform="matrix(1.00227 0 0 1 711 140)"/><path d="M177.712 232.35 177.712 224.519C177.712 223.901 178.213 223.4 178.831 223.4L186.662 223.4C187.28 223.4 187.781 223.901 187.781 224.519L187.781 232.35C187.781 232.968 187.28 233.469 186.662 233.469L178.831 233.469C178.213 233.469 177.712 232.968 177.712 232.35Z" fill="#2F2F2F" transform="matrix(1.00227 0 0 1 711 140)"/><path d="M189.888 232.35 189.888 224.519C189.888 223.901 190.389 223.4 191.007 223.4L198.838 223.4C199.456 223.4 199.957 223.901 199.957 224.519L199.957 232.35C199.957 232.968 199.456 233.469 198.838 233.469L191.007 233.469C190.389 233.469 189.888 232.968 189.888 232.35Z" fill="#2F2F2F" transform="matrix(1.00227 0 0 1 711 140)"/><path d="M202.065 232.35 202.065 224.519C202.065 223.901 202.565 223.4 203.183 223.4L211.014 223.4C211.632 223.4 212.133 223.901 212.133 224.519L212.133 232.35C212.133 232.968 211.632 233.469 211.014 233.469L203.183 233.469C202.565 233.469 202.065 232.968 202.065 232.35Z" fill="#2F2F2F" transform="matrix(1.00227 0 0 1 711 140)"/><path d="M214.241 232.35 214.241 224.519C214.241 223.901 214.742 223.4 215.359 223.4L223.19 223.4C223.808 223.4 224.309 223.901 224.309 224.519L224.309 232.35C224.309 232.968 223.808 233.469 223.19 233.469L215.359 233.469C214.742 233.469 214.241 232.968 214.241 232.35Z" fill="#2F2F2F" transform="matrix(1.00227 0 0 1 711 140)"/><path d="M226.417 232.35 226.417 224.519C226.417 223.901 226.918 223.4 227.536 223.4L235.367 223.4C235.984 223.4 236.485 223.901 236.485 224.519L236.485 232.35C236.485 232.968 235.984 233.469 235.367 233.469L227.536 233.469C226.918 233.469 226.417 232.968 226.417 232.35Z" fill="#2F2F2F" transform="matrix(1.00227 0 0 1 711 140)"/><path d="M238.593 232.35 238.593 224.519C238.593 223.901 239.094 223.4 239.712 223.4L247.543 223.4C248.16 223.4 248.661 223.901 248.661 224.519L248.661 232.35C248.661 232.968 248.16 233.469 247.543 233.469L239.712 233.469C239.094 233.469 238.593 232.968 238.593 232.35Z" fill="#2F2F2F" transform="matrix(1.00227 0 0 1 711 140)"/><path d="M250.769 232.35 250.769 224.519C250.769 223.901 251.27 223.4 251.888 223.4L259.719 223.4C260.337 223.4 260.837 223.901 260.837 224.519L260.837 232.35C260.837 232.968 260.337 233.469 259.719 233.469L251.888 233.469C251.27 233.469 250.769 232.968 250.769 232.35Z" fill="#2F2F2F" transform="matrix(1.00227 0 0 1 711 140)"/><path d="M262.945 232.35 262.945 224.519C262.945 223.901 263.446 223.4 264.064 223.4L271.895 223.4C272.513 223.4 273.014 223.901 273.014 224.519L273.014 232.35C273.014 232.968 272.513 233.469 271.895 233.469L264.064 233.469C263.446 233.469 262.945 232.968 262.945 232.35Z" fill="#2F2F2F" transform="matrix(1.00227 0 0 1 711 140)"/><path d="M143.915 246.333 123.811 246.333C123.193 246.333 122.692 245.832 122.692 245.214L122.692 237.384C122.692 236.766 123.193 236.265 123.811 236.265L143.915 236.265C144.533 236.265 145.034 236.766 145.034 237.384L145.034 245.214C145.034 245.832 144.533 246.333 143.915 246.333Z" fill="#2F2F2F" transform="matrix(1.00227 0 0 1 711 140)"/><path d="M147.045 245.214 147.045 237.384C147.045 236.766 147.546 236.265 148.164 236.265L155.994 236.265C156.612 236.265 157.113 236.766 157.113 237.384L157.113 245.214C157.113 245.832 156.612 246.333 155.994 246.333L148.164 246.333C147.546 246.333 147.045 245.832 147.045 245.214Z" fill="#2F2F2F" transform="matrix(1.00227 0 0 1 711 140)"/><path d="M159.221 245.214 159.221 237.384C159.221 236.766 159.722 236.265 160.34 236.265L168.17 236.265C168.788 236.265 169.289 236.766 169.289 237.384L169.289 245.214C169.289 245.832 168.788 246.333 168.17 246.333L160.34 246.333C159.722 246.333 159.221 245.832 159.221 245.214Z" fill="#2F2F2F" transform="matrix(1.00227 0 0 1 711 140)"/><path d="M171.397 245.214 171.397 237.384C171.397 236.766 171.898 236.265 172.516 236.265L180.347 236.265C180.965 236.265 181.466 236.766 181.466 237.384L181.466 245.214C181.466 245.832 180.965 246.333 180.347 246.333L172.516 246.333C171.898 246.333 171.397 245.832 171.397 245.214Z" fill="#2F2F2F" transform="matrix(1.00227 0 0 1 711 140)"/><path d="M183.574 245.214 183.574 237.384C183.574 236.766 184.074 236.265 184.692 236.265L192.523 236.265C193.141 236.265 193.642 236.766 193.642 237.384L193.642 245.214C193.642 245.832 193.141 246.333 192.523 246.333L184.692 246.333C184.074 246.333 183.574 245.832 183.574 245.214Z" fill="#2F2F2F" transform="matrix(1.00227 0 0 1 711 140)"/><path d="M195.75 245.214 195.75 237.384C195.75 236.766 196.251 236.265 196.868 236.265L204.699 236.265C205.317 236.265 205.818 236.766 205.818 237.384L205.818 245.214C205.818 245.832 205.317 246.333 204.699 246.333L196.868 246.333C196.251 246.333 195.75 245.832 195.75 245.214Z" fill="#2F2F2F" transform="matrix(1.00227 0 0 1 711 140)"/><path d="M207.926 245.214 207.926 237.384C207.926 236.766 208.427 236.265 209.044 236.265L216.875 236.265C217.493 236.265 217.994 236.766 217.994 237.384L217.994 245.214C217.994 245.832 217.493 246.333 216.875 246.333L209.044 246.333C208.427 246.333 207.926 245.832 207.926 245.214Z" fill="#2F2F2F" transform="matrix(1.00227 0 0 1 711 140)"/><path d="M220.102 245.214 220.102 237.384C220.102 236.766 220.603 236.265 221.221 236.265L229.051 236.265C229.669 236.265 230.17 236.766 230.17 237.384L230.17 245.214C230.17 245.832 229.669 246.333 229.051 246.333L221.221 246.333C220.603 246.333 220.102 245.832 220.102 245.214Z" fill="#2F2F2F" transform="matrix(1.00227 0 0 1 711 140)"/><path d="M232.278 245.214 232.278 237.384C232.278 236.766 232.779 236.265 233.397 236.265L241.228 236.265C241.846 236.265 242.346 236.766 242.346 237.384L242.346 245.214C242.346 245.832 241.846 246.333 241.228 246.333L233.397 246.333C232.779 246.333 232.278 245.832 232.278 245.214Z" fill="#2F2F2F" transform="matrix(1.00227 0 0 1 711 140)"/><path d="M244.454 245.214 244.454 237.384C244.454 236.766 244.955 236.265 245.573 236.265L253.404 236.265C254.022 236.265 254.523 236.766 254.523 237.384L254.523 245.214C254.523 245.832 254.022 246.333 253.404 246.333L245.573 246.333C244.955 246.333 244.454 245.832 244.454 245.214Z" fill="#2F2F2F" transform="matrix(1.00227 0 0 1 711 140)"/><path d="M256.63 245.214 256.63 237.384C256.63 236.766 257.131 236.265 257.749 236.265L265.58 236.265C266.198 236.265 266.699 236.766 266.699 237.384L266.699 245.214C266.699 245.832 266.198 246.333 265.58 246.333L257.749 246.333C257.131 246.333 256.63 245.832 256.63 245.214Z" fill="#2F2F2F" transform="matrix(1.00227 0 0 1 711 140)"/><path d="M268.807 245.214 268.807 237.384C269.243 236.947 269.489 236.702 269.925 236.265L289.899 236.265C290.336 236.702 290.581 236.947 291.018 237.384L291.018 245.214C290.581 245.651 290.336 245.896 289.899 246.333L269.925 246.333C269.489 245.896 269.243 245.652 268.807 245.214Z" fill="#2F2F2F" transform="matrix(1.00227 0 0 1 711 140)"/><path d="M131.642 258.943 123.811 258.943C123.194 258.943 122.693 258.442 122.693 257.824L122.693 249.994C122.693 249.376 123.194 248.875 123.811 248.875L131.642 248.875C132.26 248.875 132.761 249.376 132.761 249.994L132.761 257.824C132.76 258.442 132.259 258.943 131.642 258.943Z" fill="#2F2F2F" transform="matrix(1.00227 0 0 1 711 140)"/><path d="M134.869 257.824 134.869 249.994C134.869 249.376 135.37 248.875 135.988 248.875L143.818 248.875C144.436 248.875 144.937 249.376 144.937 249.994L144.937 257.824C144.937 258.442 144.436 258.943 143.818 258.943L135.988 258.943C135.37 258.943 134.869 258.442 134.869 257.824Z" fill="#2F2F2F" transform="matrix(1.00227 0 0 1 711 140)"/><path d="M147.045 257.824 147.045 249.994C147.045 249.376 147.546 248.875 148.164 248.875L155.994 248.875C156.612 248.875 157.113 249.376 157.113 249.994L157.113 257.824C157.113 258.442 156.612 258.943 155.994 258.943L148.164 258.943C147.546 258.943 147.045 258.442 147.045 257.824Z" fill="#2F2F2F" transform="matrix(1.00227 0 0 1 711 140)"/><path d="M159.221 257.824 159.221 249.994C159.839 249.994 160.34 249.493 160.34 248.875L168.17 248.875C168.17 249.493 168.671 249.994 169.289 249.994L169.289 257.824C168.671 257.824 168.17 258.325 168.17 258.943L160.34 258.943C160.34 258.325 159.839 257.824 159.221 257.824Z" fill="#2F2F2F" transform="matrix(1.00227 0 0 1 711 140)"/><path d="M171.162 257.824 171.162 249.994C171.162 249.376 171.663 248.875 172.281 248.875L241.271 248.875C241.889 248.875 242.39 249.376 242.39 249.994L242.39 257.824C242.39 258.442 241.889 258.943 241.271 258.943L172.28 258.943C171.662 258.943 171.162 258.442 171.162 257.824Z" fill="#2F2F2F" transform="matrix(1.00227 0 0 1 711 140)"/><path d="M244.454 257.824 244.454 249.994C244.454 249.376 244.955 248.875 245.573 248.875L253.404 248.875C254.022 248.875 254.523 249.376 254.523 249.994L254.523 257.824C254.523 258.442 254.022 258.943 253.404 258.943L245.573 258.943C244.955 258.943 244.454 258.442 244.454 257.824Z" fill="#2F2F2F" transform="matrix(1.00227 0 0 1 711 140)"/><path d="M256.678 257.824 256.678 249.994C256.678 249.376 257.179 248.875 257.797 248.875L265.628 248.875C266.245 248.875 266.746 249.376 266.746 249.994L266.746 257.824C266.746 258.442 266.245 258.943 265.628 258.943L257.797 258.943C257.179 258.943 256.678 258.442 256.678 257.824Z" fill="#2F2F2F" transform="matrix(1.00227 0 0 1 711 140)"/><path d="M280.922 257.872 280.922 250.041C280.922 249.424 281.423 248.923 282.041 248.923L289.872 248.923C290.489 248.923 290.99 249.424 290.99 250.041L290.99 257.872C290.99 258.49 290.489 258.991 289.872 258.991L282.041 258.991C281.423 258.991 280.922 258.49 280.922 257.872Z" fill="#2F2F2F" transform="matrix(1.00227 0 0 1 711 140)"/><path d="M278.003 253.458 270.172 253.458C269.554 253.458 269.053 252.957 269.053 252.34L269.053 249.993C269.053 249.376 269.554 248.875 270.172 248.875L278.003 248.875C278.62 248.875 279.121 249.376 279.121 249.993L279.121 252.34C279.121 252.957 278.62 253.458 278.003 253.458Z" fill="#2F2F2F" transform="matrix(1.00227 0 0 1 711 140)"/><path d="M278.003 258.958 270.172 258.958C269.554 258.958 269.053 258.457 269.053 257.84L269.053 255.493C269.053 254.876 269.554 254.375 270.172 254.375L278.003 254.375C278.62 254.375 279.121 254.876 279.121 255.493L279.121 257.84C279.121 258.457 278.62 258.958 278.003 258.958Z" fill="#2F2F2F" transform="matrix(1.00227 0 0 1 711 140)"/><path d="M91.009 89.986 91.009 87.4564C91.009 84.0276 92.895 80.8193 96.3903 80.8193L317.122 80.8193C320.617 80.8193 322.504 83.5693 322.504 87.4564L322.504 90.4443 91.009 89.986Z" fill="#CFCFCF" transform="matrix(1.00227 0 0 1 711 140)"/><path d="M114.082 169.811 183.382 169.811 256.715 96.4773 99.0559 96.4773Z" fill="#F2F2F2" transform="matrix(1.00227 0 0 1 711 140)"/><path d="M299.789 169.581 314.078 96.7065 255.061 96.7065 182.185 169.581Z" fill="#E6E6E6" transform="matrix(1.00227 0 0 1 711 140)"/><path d="M115.089 168.968 100.408 97.3193 255.363 97.3193 267.96 84.7225 267.262 84.5057 96.4013 84.5057C92.9023 84.5057 90.293 87.7296 91.0218 91.1515L108.203 171.799C108.744 174.338 110.987 176.153 113.583 176.153L176.53 176.153 183.714 168.969 115.089 168.969Z" fill="#2F2F2F" transform="matrix(1.00227 0 0 1 711 140)"/><path d="M317.111 84.5057 267.26 84.5057 254.446 97.3198 312.47 97.3198 298.422 168.969 182.798 168.969 175.613 176.153 299.929 176.153C302.525 176.153 304.768 174.338 305.309 171.799L322.49 91.1515C323.219 87.7296 320.61 84.5057 317.111 84.5057Z" fill="#505050" transform="matrix(1.00227 0 0 1 711 140)"/><path d="M231.414 139.882 183.747 139.882C182.988 139.882 182.372 139.266 182.372 138.507 182.372 137.748 182.988 137.132 183.747 137.132L231.414 137.132C232.173 137.132 232.789 137.748 232.789 138.507 232.789 139.266 232.173 139.882 231.414 139.882Z" fill="#FFFFFF" transform="matrix(1.00227 0 0 1 711 140)"/></g></svg>